<mxfile host="65bd71144e">
    <diagram id="X6FSI5zRaq-TvV2EfkD7" name="Page-1">
        <mxGraphModel dx="712" dy="651" grid="1" gridSize="10" guides="1" tooltips="1" connect="1" arrows="1" fold="1" page="1" pageScale="1" pageWidth="850" pageHeight="1100" math="0" shadow="0">
            <root>
                <mxCell id="0"/>
                <mxCell id="1" parent="0"/>
                <mxCell id="15" value="Companies" style="swimlane;whiteSpace=wrap;html=1;" vertex="1" parent="1">
                    <mxGeometry x="40" y="40" width="200" height="200" as="geometry"/>
                </mxCell>
                <mxCell id="17" value="ID&lt;div&gt;Name&lt;/div&gt;&lt;div&gt;&lt;br&gt;&lt;/div&gt;" style="text;strokeColor=none;fillColor=none;align=left;verticalAlign=middle;spacingLeft=4;spacingRight=4;overflow=hidden;points=[[0,0.5],[1,0.5]];portConstraint=eastwest;rotatable=0;whiteSpace=wrap;html=1;" vertex="1" parent="15">
                    <mxGeometry x="10" y="30" width="180" height="30" as="geometry"/>
                </mxCell>
                <mxCell id="21" value="&lt;div style=&quot;text-align: left;&quot;&gt;&lt;font color=&quot;#000000&quot;&gt;CREATE TABLE companies (&lt;/font&gt;&lt;/div&gt;&lt;div style=&quot;text-align: left;&quot;&gt;&lt;font color=&quot;#000000&quot;&gt;&amp;nbsp; id SERIAL PRIMARY KEY,&lt;/font&gt;&lt;/div&gt;&lt;div style=&quot;text-align: left;&quot;&gt;&lt;font color=&quot;#000000&quot;&gt;&amp;nbsp; name VARCHAR(100) NOT NULL UNIQUE&lt;/font&gt;&lt;/div&gt;&lt;div style=&quot;text-align: left;&quot;&gt;&lt;font color=&quot;#000000&quot;&gt;);&lt;/font&gt;&lt;/div&gt;&lt;div&gt;&lt;br&gt;&lt;/div&gt;" style="text;html=1;align=center;verticalAlign=middle;whiteSpace=wrap;rounded=0;" vertex="1" parent="15">
                    <mxGeometry x="10" y="60" width="180" height="130" as="geometry"/>
                </mxCell>
                <mxCell id="18" value="Locations" style="swimlane;whiteSpace=wrap;html=1;" vertex="1" parent="1">
                    <mxGeometry x="40" y="280" width="200" height="280" as="geometry"/>
                </mxCell>
                <mxCell id="19" value="ID, Company ID, Location Name, Address" style="text;strokeColor=none;fillColor=none;align=left;verticalAlign=middle;spacingLeft=4;spacingRight=4;overflow=hidden;points=[[0,0.5],[1,0.5]];portConstraint=eastwest;rotatable=0;whiteSpace=wrap;html=1;" vertex="1" parent="18">
                    <mxGeometry x="1" y="41" width="200" height="50" as="geometry"/>
                </mxCell>
                <mxCell id="22" value="&lt;div&gt;&lt;font color=&quot;#000000&quot;&gt;CREATE TABLE locations (&lt;/font&gt;&lt;/div&gt;&lt;div&gt;&lt;font color=&quot;#000000&quot;&gt;&amp;nbsp; id SERIAL PRIMARY KEY,&lt;/font&gt;&lt;/div&gt;&lt;div&gt;&lt;font color=&quot;#000000&quot;&gt;&amp;nbsp; company_id INTEGER NOT NULL REFERENCES companies(id),&lt;/font&gt;&lt;/div&gt;&lt;div&gt;&lt;font color=&quot;#000000&quot;&gt;&amp;nbsp; name VARCHAR(100) NOT NULL,&lt;/font&gt;&lt;/div&gt;&lt;div&gt;&lt;font color=&quot;#000000&quot;&gt;&amp;nbsp; address TEXT,&lt;/font&gt;&lt;/div&gt;&lt;div&gt;&lt;font color=&quot;#000000&quot;&gt;&amp;nbsp; UNIQUE (company_id, name)&amp;nbsp; -- optional: no duplicate location names per company&lt;/font&gt;&lt;/div&gt;&lt;div&gt;&lt;font color=&quot;#000000&quot;&gt;);&lt;/font&gt;&lt;/div&gt;&lt;div style=&quot;&quot;&gt;&lt;br&gt;&lt;/div&gt;" style="text;html=1;align=left;verticalAlign=middle;whiteSpace=wrap;rounded=0;" vertex="1" parent="18">
                    <mxGeometry y="120" width="190" height="150" as="geometry"/>
                </mxCell>
            </root>
        </mxGraphModel>
    </diagram>
</mxfile>